%TF.GenerationSoftware,KiCad,Pcbnew,(5.1.9)-1*%
%TF.CreationDate,2021-01-25T12:39:42+01:00*%
%TF.ProjectId,FriedrichPCB,46726965-6472-4696-9368-5043422e6b69,rev?*%
%TF.SameCoordinates,Original*%
%TF.FileFunction,Soldermask,Top*%
%TF.FilePolarity,Negative*%
%FSLAX46Y46*%
G04 Gerber Fmt 4.6, Leading zero omitted, Abs format (unit mm)*
G04 Created by KiCad (PCBNEW (5.1.9)-1) date 2021-01-25 12:39:42*
%MOMM*%
%LPD*%
G01*
G04 APERTURE LIST*
%ADD10C,3.987800*%
%ADD11C,1.750000*%
%ADD12C,3.048000*%
%ADD13R,1.700000X1.000000*%
G04 APERTURE END LIST*
D10*
%TO.C,MX58*%
X148691600Y-132892800D03*
D11*
X143611600Y-132892800D03*
X153771600Y-132892800D03*
D12*
X98691700Y-139877800D03*
X198691500Y-139877800D03*
D10*
X98691700Y-124637800D03*
X198691500Y-124637800D03*
%TD*%
%TO.C,MX42*%
X96316800Y-113842800D03*
D11*
X91236800Y-113842800D03*
X101396800Y-113842800D03*
%TD*%
D10*
%TO.C,MX40*%
X46329600Y-113842800D03*
D11*
X41249600Y-113842800D03*
X51409600Y-113842800D03*
D12*
X34423350Y-120827800D03*
X58235850Y-120827800D03*
D10*
X34423350Y-105587800D03*
X58235850Y-105587800D03*
%TD*%
%TO.C,MX62*%
X220116400Y-132892800D03*
D11*
X215036400Y-132892800D03*
X225196400Y-132892800D03*
%TD*%
D10*
%TO.C,MX54*%
X77266800Y-132892800D03*
D11*
X72186800Y-132892800D03*
X82346800Y-132892800D03*
%TD*%
D10*
%TO.C,MX51*%
X255879600Y-113842800D03*
D11*
X250799600Y-113842800D03*
X260959600Y-113842800D03*
%TD*%
D10*
%TO.C,MX38*%
X251053600Y-94792800D03*
D11*
X245973600Y-94792800D03*
X256133600Y-94792800D03*
D12*
X239147350Y-87807800D03*
X262959850Y-87807800D03*
D10*
X239147350Y-103047800D03*
X262959850Y-103047800D03*
%TD*%
%TO.C,MX27*%
X41554400Y-94792800D03*
D11*
X36474400Y-94792800D03*
X46634400Y-94792800D03*
%TD*%
D10*
%TO.C,MX25*%
X258216400Y-75742800D03*
D11*
X253136400Y-75742800D03*
X263296400Y-75742800D03*
%TD*%
D10*
%TO.C,MX14*%
X39166800Y-75742800D03*
D11*
X34086800Y-75742800D03*
X44246800Y-75742800D03*
%TD*%
D13*
%TO.C,RESET*%
X187401600Y-134742000D03*
X181101600Y-134742000D03*
X187401600Y-130942000D03*
X181101600Y-130942000D03*
%TD*%
D10*
%TO.C,MX63*%
X241554000Y-132892800D03*
D11*
X236474000Y-132892800D03*
X246634000Y-132892800D03*
%TD*%
D10*
%TO.C,MX53*%
X55829200Y-132892800D03*
D11*
X50749200Y-132892800D03*
X60909200Y-132892800D03*
%TD*%
D10*
%TO.C,MX49*%
X229666800Y-113842800D03*
D11*
X224586800Y-113842800D03*
X234746800Y-113842800D03*
%TD*%
D10*
%TO.C,MX48*%
X210616800Y-113842800D03*
D11*
X205536800Y-113842800D03*
X215696800Y-113842800D03*
%TD*%
D10*
%TO.C,MX47*%
X191566800Y-113842800D03*
D11*
X186486800Y-113842800D03*
X196646800Y-113842800D03*
%TD*%
D10*
%TO.C,MX46*%
X172516800Y-113842800D03*
D11*
X167436800Y-113842800D03*
X177596800Y-113842800D03*
%TD*%
D10*
%TO.C,MX45*%
X153466800Y-113842800D03*
D11*
X148386800Y-113842800D03*
X158546800Y-113842800D03*
%TD*%
D10*
%TO.C,MX44*%
X134416800Y-113842800D03*
D11*
X129336800Y-113842800D03*
X139496800Y-113842800D03*
%TD*%
D10*
%TO.C,MX43*%
X115366800Y-113842800D03*
D11*
X110286800Y-113842800D03*
X120446800Y-113842800D03*
%TD*%
D10*
%TO.C,MX41*%
X77266800Y-113842800D03*
D11*
X72186800Y-113842800D03*
X82346800Y-113842800D03*
%TD*%
D10*
%TO.C,MX36*%
X220116400Y-94792800D03*
D11*
X215036400Y-94792800D03*
X225196400Y-94792800D03*
%TD*%
D10*
%TO.C,MX35*%
X201066400Y-94792800D03*
D11*
X195986400Y-94792800D03*
X206146400Y-94792800D03*
%TD*%
D10*
%TO.C,MX34*%
X182016400Y-94792800D03*
D11*
X176936400Y-94792800D03*
X187096400Y-94792800D03*
%TD*%
D10*
%TO.C,MX33*%
X162966400Y-94792800D03*
D11*
X157886400Y-94792800D03*
X168046400Y-94792800D03*
%TD*%
D10*
%TO.C,MX32*%
X143916400Y-94792800D03*
D11*
X138836400Y-94792800D03*
X148996400Y-94792800D03*
%TD*%
D10*
%TO.C,MX31*%
X124866400Y-94792800D03*
D11*
X119786400Y-94792800D03*
X129946400Y-94792800D03*
%TD*%
D10*
%TO.C,MX30*%
X105816400Y-94792800D03*
D11*
X100736400Y-94792800D03*
X110896400Y-94792800D03*
%TD*%
D10*
%TO.C,MX29*%
X86766400Y-94792800D03*
D11*
X81686400Y-94792800D03*
X91846400Y-94792800D03*
%TD*%
D10*
%TO.C,MX28*%
X67716400Y-94792800D03*
D11*
X62636400Y-94792800D03*
X72796400Y-94792800D03*
%TD*%
D10*
%TO.C,MX24*%
X234442000Y-75742800D03*
D11*
X229362000Y-75742800D03*
X239522000Y-75742800D03*
%TD*%
D10*
%TO.C,MX23*%
X215392000Y-75742800D03*
D11*
X210312000Y-75742800D03*
X220472000Y-75742800D03*
%TD*%
D10*
%TO.C,MX22*%
X196342000Y-75742800D03*
D11*
X191262000Y-75742800D03*
X201422000Y-75742800D03*
%TD*%
D10*
%TO.C,MX21*%
X177292000Y-75742800D03*
D11*
X172212000Y-75742800D03*
X182372000Y-75742800D03*
%TD*%
D10*
%TO.C,MX20*%
X158242000Y-75742800D03*
D11*
X153162000Y-75742800D03*
X163322000Y-75742800D03*
%TD*%
D10*
%TO.C,MX19*%
X139192000Y-75742800D03*
D11*
X134112000Y-75742800D03*
X144272000Y-75742800D03*
%TD*%
D10*
%TO.C,MX18*%
X120142000Y-75742800D03*
D11*
X115062000Y-75742800D03*
X125222000Y-75742800D03*
%TD*%
D10*
%TO.C,MX17*%
X101092000Y-75742800D03*
D11*
X96012000Y-75742800D03*
X106172000Y-75742800D03*
%TD*%
D10*
%TO.C,MX16*%
X82042000Y-75742800D03*
D11*
X76962000Y-75742800D03*
X87122000Y-75742800D03*
%TD*%
D10*
%TO.C,MX15*%
X62992000Y-75742800D03*
D11*
X57912000Y-75742800D03*
X68072000Y-75742800D03*
%TD*%
D10*
%TO.C,MX13*%
X262991600Y-56692800D03*
D11*
X257911600Y-56692800D03*
X268071600Y-56692800D03*
%TD*%
D10*
%TO.C,MX12*%
X243941600Y-56692800D03*
D11*
X238861600Y-56692800D03*
X249021600Y-56692800D03*
%TD*%
D10*
%TO.C,MX11*%
X224891600Y-56692800D03*
D11*
X219811600Y-56692800D03*
X229971600Y-56692800D03*
%TD*%
D10*
%TO.C,MX10*%
X205841600Y-56692800D03*
D11*
X200761600Y-56692800D03*
X210921600Y-56692800D03*
%TD*%
D10*
%TO.C,MX9*%
X186791600Y-56692800D03*
D11*
X181711600Y-56692800D03*
X191871600Y-56692800D03*
%TD*%
D10*
%TO.C,MX8*%
X167741600Y-56692800D03*
D11*
X162661600Y-56692800D03*
X172821600Y-56692800D03*
%TD*%
D10*
%TO.C,MX7*%
X148691600Y-56692800D03*
D11*
X143611600Y-56692800D03*
X153771600Y-56692800D03*
%TD*%
D10*
%TO.C,MX6*%
X129641600Y-56692800D03*
D11*
X124561600Y-56692800D03*
X134721600Y-56692800D03*
%TD*%
D10*
%TO.C,MX5*%
X110591600Y-56692800D03*
D11*
X105511600Y-56692800D03*
X115671600Y-56692800D03*
%TD*%
D10*
%TO.C,MX4*%
X91541600Y-56692800D03*
D11*
X86461600Y-56692800D03*
X96621600Y-56692800D03*
%TD*%
D10*
%TO.C,MX3*%
X72491600Y-56692800D03*
D11*
X67411600Y-56692800D03*
X77571600Y-56692800D03*
%TD*%
D10*
%TO.C,MX2*%
X53441600Y-56692800D03*
D11*
X48361600Y-56692800D03*
X58521600Y-56692800D03*
%TD*%
D10*
%TO.C,MX1*%
X34391600Y-56692800D03*
D11*
X29311600Y-56692800D03*
X39471600Y-56692800D03*
%TD*%
M02*
