%TF.GenerationSoftware,KiCad,Pcbnew,(5.1.9)-1*%
%TF.CreationDate,2021-01-25T12:39:42+01:00*%
%TF.ProjectId,FriedrichPCB,46726965-6472-4696-9368-5043422e6b69,rev?*%
%TF.SameCoordinates,Original*%
%TF.FileFunction,Paste,Bot*%
%TF.FilePolarity,Positive*%
%FSLAX46Y46*%
G04 Gerber Fmt 4.6, Leading zero omitted, Abs format (unit mm)*
G04 Created by KiCad (PCBNEW (5.1.9)-1) date 2021-01-25 12:39:42*
%MOMM*%
%LPD*%
G01*
G04 APERTURE LIST*
%ADD10C,0.100000*%
%ADD11R,1.060000X0.650000*%
%ADD12R,1.200000X0.900000*%
G04 APERTURE END LIST*
%TO.C,USB1*%
G36*
G01*
X139604199Y-86528000D02*
X140904201Y-86528000D01*
G75*
G02*
X141154200Y-86777999I0J-249999D01*
G01*
X141154200Y-87478001D01*
G75*
G02*
X140904201Y-87728000I-249999J0D01*
G01*
X139604199Y-87728000D01*
G75*
G02*
X139354200Y-87478001I0J249999D01*
G01*
X139354200Y-86777999D01*
G75*
G02*
X139604199Y-86528000I249999J0D01*
G01*
G37*
G36*
G01*
X139604199Y-80928000D02*
X140904201Y-80928000D01*
G75*
G02*
X141154200Y-81177999I0J-249999D01*
G01*
X141154200Y-81878001D01*
G75*
G02*
X140904201Y-82128000I-249999J0D01*
G01*
X139604199Y-82128000D01*
G75*
G02*
X139354200Y-81878001I0J249999D01*
G01*
X139354200Y-81177999D01*
G75*
G02*
X139604199Y-80928000I249999J0D01*
G01*
G37*
G36*
G01*
X135754200Y-85528000D02*
X137004200Y-85528000D01*
G75*
G02*
X137154200Y-85678000I0J-150000D01*
G01*
X137154200Y-85978000D01*
G75*
G02*
X137004200Y-86128000I-150000J0D01*
G01*
X135754200Y-86128000D01*
G75*
G02*
X135604200Y-85978000I0J150000D01*
G01*
X135604200Y-85678000D01*
G75*
G02*
X135754200Y-85528000I150000J0D01*
G01*
G37*
G36*
G01*
X135754200Y-84528000D02*
X137004200Y-84528000D01*
G75*
G02*
X137154200Y-84678000I0J-150000D01*
G01*
X137154200Y-84978000D01*
G75*
G02*
X137004200Y-85128000I-150000J0D01*
G01*
X135754200Y-85128000D01*
G75*
G02*
X135604200Y-84978000I0J150000D01*
G01*
X135604200Y-84678000D01*
G75*
G02*
X135754200Y-84528000I150000J0D01*
G01*
G37*
G36*
G01*
X135754200Y-83528000D02*
X137004200Y-83528000D01*
G75*
G02*
X137154200Y-83678000I0J-150000D01*
G01*
X137154200Y-83978000D01*
G75*
G02*
X137004200Y-84128000I-150000J0D01*
G01*
X135754200Y-84128000D01*
G75*
G02*
X135604200Y-83978000I0J150000D01*
G01*
X135604200Y-83678000D01*
G75*
G02*
X135754200Y-83528000I150000J0D01*
G01*
G37*
G36*
G01*
X135754200Y-82528000D02*
X137004200Y-82528000D01*
G75*
G02*
X137154200Y-82678000I0J-150000D01*
G01*
X137154200Y-82978000D01*
G75*
G02*
X137004200Y-83128000I-150000J0D01*
G01*
X135754200Y-83128000D01*
G75*
G02*
X135604200Y-82978000I0J150000D01*
G01*
X135604200Y-82678000D01*
G75*
G02*
X135754200Y-82528000I150000J0D01*
G01*
G37*
%TD*%
D10*
%TO.C,X1*%
G36*
X135952897Y-121659488D02*
G01*
X135104369Y-122508016D01*
X134114419Y-121518066D01*
X134962947Y-120669538D01*
X135952897Y-121659488D01*
G37*
G36*
X134397262Y-120103853D02*
G01*
X133548734Y-120952381D01*
X132558784Y-119962431D01*
X133407312Y-119113903D01*
X134397262Y-120103853D01*
G37*
G36*
X133195181Y-121305934D02*
G01*
X132346653Y-122154462D01*
X131356703Y-121164512D01*
X132205231Y-120315984D01*
X133195181Y-121305934D01*
G37*
G36*
X134750816Y-122861569D02*
G01*
X133902288Y-123710097D01*
X132912338Y-122720147D01*
X133760866Y-121871619D01*
X134750816Y-122861569D01*
G37*
%TD*%
D11*
%TO.C,U2*%
X134485200Y-99466400D03*
X134485200Y-98516400D03*
X134485200Y-100416400D03*
X136685200Y-100416400D03*
X136685200Y-99466400D03*
X136685200Y-98516400D03*
%TD*%
D10*
%TO.C,U1*%
G36*
X118546540Y-127731298D02*
G01*
X118935448Y-128120206D01*
X117874788Y-129180866D01*
X117485880Y-128791958D01*
X118546540Y-127731298D01*
G37*
G36*
X119112226Y-128296983D02*
G01*
X119501134Y-128685891D01*
X118440474Y-129746551D01*
X118051566Y-129357643D01*
X119112226Y-128296983D01*
G37*
G36*
X119677911Y-128862668D02*
G01*
X120066819Y-129251576D01*
X119006159Y-130312236D01*
X118617251Y-129923328D01*
X119677911Y-128862668D01*
G37*
G36*
X120243596Y-129428354D02*
G01*
X120632504Y-129817262D01*
X119571844Y-130877922D01*
X119182936Y-130489014D01*
X120243596Y-129428354D01*
G37*
G36*
X120809282Y-129994039D02*
G01*
X121198190Y-130382947D01*
X120137530Y-131443607D01*
X119748622Y-131054699D01*
X120809282Y-129994039D01*
G37*
G36*
X121374967Y-130559725D02*
G01*
X121763875Y-130948633D01*
X120703215Y-132009293D01*
X120314307Y-131620385D01*
X121374967Y-130559725D01*
G37*
G36*
X121940653Y-131125410D02*
G01*
X122329561Y-131514318D01*
X121268901Y-132574978D01*
X120879993Y-132186070D01*
X121940653Y-131125410D01*
G37*
G36*
X122506338Y-131691096D02*
G01*
X122895246Y-132080004D01*
X121834586Y-133140664D01*
X121445678Y-132751756D01*
X122506338Y-131691096D01*
G37*
G36*
X123072024Y-132256781D02*
G01*
X123460932Y-132645689D01*
X122400272Y-133706349D01*
X122011364Y-133317441D01*
X123072024Y-132256781D01*
G37*
G36*
X123637709Y-132822466D02*
G01*
X124026617Y-133211374D01*
X122965957Y-134272034D01*
X122577049Y-133883126D01*
X123637709Y-132822466D01*
G37*
G36*
X124203394Y-133388152D02*
G01*
X124592302Y-133777060D01*
X123531642Y-134837720D01*
X123142734Y-134448812D01*
X124203394Y-133388152D01*
G37*
G36*
X125546898Y-133777060D02*
G01*
X125935806Y-133388152D01*
X126996466Y-134448812D01*
X126607558Y-134837720D01*
X125546898Y-133777060D01*
G37*
G36*
X126112583Y-133211374D02*
G01*
X126501491Y-132822466D01*
X127562151Y-133883126D01*
X127173243Y-134272034D01*
X126112583Y-133211374D01*
G37*
G36*
X126678268Y-132645689D02*
G01*
X127067176Y-132256781D01*
X128127836Y-133317441D01*
X127738928Y-133706349D01*
X126678268Y-132645689D01*
G37*
G36*
X127243954Y-132080004D02*
G01*
X127632862Y-131691096D01*
X128693522Y-132751756D01*
X128304614Y-133140664D01*
X127243954Y-132080004D01*
G37*
G36*
X127809639Y-131514318D02*
G01*
X128198547Y-131125410D01*
X129259207Y-132186070D01*
X128870299Y-132574978D01*
X127809639Y-131514318D01*
G37*
G36*
X128375325Y-130948633D02*
G01*
X128764233Y-130559725D01*
X129824893Y-131620385D01*
X129435985Y-132009293D01*
X128375325Y-130948633D01*
G37*
G36*
X128941010Y-130382947D02*
G01*
X129329918Y-129994039D01*
X130390578Y-131054699D01*
X130001670Y-131443607D01*
X128941010Y-130382947D01*
G37*
G36*
X129506696Y-129817262D02*
G01*
X129895604Y-129428354D01*
X130956264Y-130489014D01*
X130567356Y-130877922D01*
X129506696Y-129817262D01*
G37*
G36*
X130072381Y-129251576D02*
G01*
X130461289Y-128862668D01*
X131521949Y-129923328D01*
X131133041Y-130312236D01*
X130072381Y-129251576D01*
G37*
G36*
X130638066Y-128685891D02*
G01*
X131026974Y-128296983D01*
X132087634Y-129357643D01*
X131698726Y-129746551D01*
X130638066Y-128685891D01*
G37*
G36*
X131203752Y-128120206D02*
G01*
X131592660Y-127731298D01*
X132653320Y-128791958D01*
X132264412Y-129180866D01*
X131203752Y-128120206D01*
G37*
G36*
X132264412Y-125327134D02*
G01*
X132653320Y-125716042D01*
X131592660Y-126776702D01*
X131203752Y-126387794D01*
X132264412Y-125327134D01*
G37*
G36*
X131698726Y-124761449D02*
G01*
X132087634Y-125150357D01*
X131026974Y-126211017D01*
X130638066Y-125822109D01*
X131698726Y-124761449D01*
G37*
G36*
X131133041Y-124195764D02*
G01*
X131521949Y-124584672D01*
X130461289Y-125645332D01*
X130072381Y-125256424D01*
X131133041Y-124195764D01*
G37*
G36*
X130567356Y-123630078D02*
G01*
X130956264Y-124018986D01*
X129895604Y-125079646D01*
X129506696Y-124690738D01*
X130567356Y-123630078D01*
G37*
G36*
X130001670Y-123064393D02*
G01*
X130390578Y-123453301D01*
X129329918Y-124513961D01*
X128941010Y-124125053D01*
X130001670Y-123064393D01*
G37*
G36*
X129435985Y-122498707D02*
G01*
X129824893Y-122887615D01*
X128764233Y-123948275D01*
X128375325Y-123559367D01*
X129435985Y-122498707D01*
G37*
G36*
X128870299Y-121933022D02*
G01*
X129259207Y-122321930D01*
X128198547Y-123382590D01*
X127809639Y-122993682D01*
X128870299Y-121933022D01*
G37*
G36*
X128304614Y-121367336D02*
G01*
X128693522Y-121756244D01*
X127632862Y-122816904D01*
X127243954Y-122427996D01*
X128304614Y-121367336D01*
G37*
G36*
X127738928Y-120801651D02*
G01*
X128127836Y-121190559D01*
X127067176Y-122251219D01*
X126678268Y-121862311D01*
X127738928Y-120801651D01*
G37*
G36*
X127173243Y-120235966D02*
G01*
X127562151Y-120624874D01*
X126501491Y-121685534D01*
X126112583Y-121296626D01*
X127173243Y-120235966D01*
G37*
G36*
X126607558Y-119670280D02*
G01*
X126996466Y-120059188D01*
X125935806Y-121119848D01*
X125546898Y-120730940D01*
X126607558Y-119670280D01*
G37*
G36*
X123142734Y-120059188D02*
G01*
X123531642Y-119670280D01*
X124592302Y-120730940D01*
X124203394Y-121119848D01*
X123142734Y-120059188D01*
G37*
G36*
X122577049Y-120624874D02*
G01*
X122965957Y-120235966D01*
X124026617Y-121296626D01*
X123637709Y-121685534D01*
X122577049Y-120624874D01*
G37*
G36*
X122011364Y-121190559D02*
G01*
X122400272Y-120801651D01*
X123460932Y-121862311D01*
X123072024Y-122251219D01*
X122011364Y-121190559D01*
G37*
G36*
X121445678Y-121756244D02*
G01*
X121834586Y-121367336D01*
X122895246Y-122427996D01*
X122506338Y-122816904D01*
X121445678Y-121756244D01*
G37*
G36*
X120879993Y-122321930D02*
G01*
X121268901Y-121933022D01*
X122329561Y-122993682D01*
X121940653Y-123382590D01*
X120879993Y-122321930D01*
G37*
G36*
X120314307Y-122887615D02*
G01*
X120703215Y-122498707D01*
X121763875Y-123559367D01*
X121374967Y-123948275D01*
X120314307Y-122887615D01*
G37*
G36*
X119748622Y-123453301D02*
G01*
X120137530Y-123064393D01*
X121198190Y-124125053D01*
X120809282Y-124513961D01*
X119748622Y-123453301D01*
G37*
G36*
X119182936Y-124018986D02*
G01*
X119571844Y-123630078D01*
X120632504Y-124690738D01*
X120243596Y-125079646D01*
X119182936Y-124018986D01*
G37*
G36*
X118617251Y-124584672D02*
G01*
X119006159Y-124195764D01*
X120066819Y-125256424D01*
X119677911Y-125645332D01*
X118617251Y-124584672D01*
G37*
G36*
X118051566Y-125150357D02*
G01*
X118440474Y-124761449D01*
X119501134Y-125822109D01*
X119112226Y-126211017D01*
X118051566Y-125150357D01*
G37*
G36*
X117485880Y-125716042D02*
G01*
X117874788Y-125327134D01*
X118935448Y-126387794D01*
X118546540Y-126776702D01*
X117485880Y-125716042D01*
G37*
%TD*%
%TO.C,R5*%
G36*
G01*
X162567198Y-134664400D02*
X163467202Y-134664400D01*
G75*
G02*
X163717200Y-134914398I0J-249998D01*
G01*
X163717200Y-135439402D01*
G75*
G02*
X163467202Y-135689400I-249998J0D01*
G01*
X162567198Y-135689400D01*
G75*
G02*
X162317200Y-135439402I0J249998D01*
G01*
X162317200Y-134914398D01*
G75*
G02*
X162567198Y-134664400I249998J0D01*
G01*
G37*
G36*
G01*
X162567198Y-132839400D02*
X163467202Y-132839400D01*
G75*
G02*
X163717200Y-133089398I0J-249998D01*
G01*
X163717200Y-133614402D01*
G75*
G02*
X163467202Y-133864400I-249998J0D01*
G01*
X162567198Y-133864400D01*
G75*
G02*
X162317200Y-133614402I0J249998D01*
G01*
X162317200Y-133089398D01*
G75*
G02*
X162567198Y-132839400I249998J0D01*
G01*
G37*
%TD*%
%TO.C,R3*%
G36*
G01*
X128457756Y-137371757D02*
X127821357Y-138008156D01*
G75*
G02*
X127467807Y-138008156I-176775J176775D01*
G01*
X127096574Y-137636923D01*
G75*
G02*
X127096574Y-137283373I176775J176775D01*
G01*
X127732973Y-136646974D01*
G75*
G02*
X128086523Y-136646974I176775J-176775D01*
G01*
X128457756Y-137018207D01*
G75*
G02*
X128457756Y-137371757I-176775J-176775D01*
G01*
G37*
G36*
G01*
X129748226Y-138662227D02*
X129111827Y-139298626D01*
G75*
G02*
X128758277Y-139298626I-176775J176775D01*
G01*
X128387044Y-138927393D01*
G75*
G02*
X128387044Y-138573843I176775J176775D01*
G01*
X129023443Y-137937444D01*
G75*
G02*
X129376993Y-137937444I176775J-176775D01*
G01*
X129748226Y-138308677D01*
G75*
G02*
X129748226Y-138662227I-176775J-176775D01*
G01*
G37*
%TD*%
%TO.C,R2*%
G36*
G01*
X123247998Y-110026400D02*
X124148002Y-110026400D01*
G75*
G02*
X124398000Y-110276398I0J-249998D01*
G01*
X124398000Y-110801402D01*
G75*
G02*
X124148002Y-111051400I-249998J0D01*
G01*
X123247998Y-111051400D01*
G75*
G02*
X122998000Y-110801402I0J249998D01*
G01*
X122998000Y-110276398D01*
G75*
G02*
X123247998Y-110026400I249998J0D01*
G01*
G37*
G36*
G01*
X123247998Y-108201400D02*
X124148002Y-108201400D01*
G75*
G02*
X124398000Y-108451398I0J-249998D01*
G01*
X124398000Y-108976402D01*
G75*
G02*
X124148002Y-109226400I-249998J0D01*
G01*
X123247998Y-109226400D01*
G75*
G02*
X122998000Y-108976402I0J249998D01*
G01*
X122998000Y-108451398D01*
G75*
G02*
X123247998Y-108201400I249998J0D01*
G01*
G37*
%TD*%
%TO.C,R1*%
G36*
G01*
X125635598Y-110026400D02*
X126535602Y-110026400D01*
G75*
G02*
X126785600Y-110276398I0J-249998D01*
G01*
X126785600Y-110801402D01*
G75*
G02*
X126535602Y-111051400I-249998J0D01*
G01*
X125635598Y-111051400D01*
G75*
G02*
X125385600Y-110801402I0J249998D01*
G01*
X125385600Y-110276398D01*
G75*
G02*
X125635598Y-110026400I249998J0D01*
G01*
G37*
G36*
G01*
X125635598Y-108201400D02*
X126535602Y-108201400D01*
G75*
G02*
X126785600Y-108451398I0J-249998D01*
G01*
X126785600Y-108976402D01*
G75*
G02*
X126535602Y-109226400I-249998J0D01*
G01*
X125635598Y-109226400D01*
G75*
G02*
X125385600Y-108976402I0J249998D01*
G01*
X125385600Y-108451398D01*
G75*
G02*
X125635598Y-108201400I249998J0D01*
G01*
G37*
%TD*%
%TO.C,F1*%
G36*
G01*
X133131400Y-94399400D02*
X134381400Y-94399400D01*
G75*
G02*
X134631400Y-94649400I0J-250000D01*
G01*
X134631400Y-95399400D01*
G75*
G02*
X134381400Y-95649400I-250000J0D01*
G01*
X133131400Y-95649400D01*
G75*
G02*
X132881400Y-95399400I0J250000D01*
G01*
X132881400Y-94649400D01*
G75*
G02*
X133131400Y-94399400I250000J0D01*
G01*
G37*
G36*
G01*
X133131400Y-91599400D02*
X134381400Y-91599400D01*
G75*
G02*
X134631400Y-91849400I0J-250000D01*
G01*
X134631400Y-92599400D01*
G75*
G02*
X134381400Y-92849400I-250000J0D01*
G01*
X133131400Y-92849400D01*
G75*
G02*
X132881400Y-92599400I0J250000D01*
G01*
X132881400Y-91849400D01*
G75*
G02*
X133131400Y-91599400I250000J0D01*
G01*
G37*
%TD*%
D12*
%TO.C,D63*%
X231241600Y-133478000D03*
X231241600Y-136778000D03*
%TD*%
%TO.C,D62*%
X211023200Y-133478000D03*
X211023200Y-136778000D03*
%TD*%
%TO.C,D58*%
X159156400Y-133528800D03*
X159156400Y-136828800D03*
%TD*%
%TO.C,D54*%
X87020400Y-133427200D03*
X87020400Y-136727200D03*
%TD*%
%TO.C,D53*%
X65379600Y-133427200D03*
X65379600Y-136727200D03*
%TD*%
%TO.C,D51*%
X243687600Y-114631200D03*
X243687600Y-117931200D03*
%TD*%
%TO.C,D49*%
X240842800Y-114631200D03*
X240842800Y-117931200D03*
%TD*%
%TO.C,D48*%
X220167200Y-114631200D03*
X220167200Y-117931200D03*
%TD*%
%TO.C,D47*%
X201117200Y-114631200D03*
X201117200Y-117931200D03*
%TD*%
%TO.C,D46*%
X182016400Y-114631200D03*
X182016400Y-117931200D03*
%TD*%
%TO.C,D45*%
X162966400Y-114631200D03*
X162966400Y-117931200D03*
%TD*%
%TO.C,D44*%
X143967200Y-114631200D03*
X143967200Y-117931200D03*
%TD*%
%TO.C,D43*%
X107289600Y-114631200D03*
X107289600Y-117931200D03*
%TD*%
%TO.C,D42*%
X104444800Y-114631200D03*
X104444800Y-117931200D03*
%TD*%
%TO.C,D41*%
X86766400Y-114631200D03*
X86766400Y-117931200D03*
%TD*%
%TO.C,D40*%
X66649600Y-114682000D03*
X66649600Y-117982000D03*
%TD*%
%TO.C,D38*%
X234035600Y-95987600D03*
X234035600Y-99287600D03*
%TD*%
%TO.C,D36*%
X228295200Y-95987600D03*
X228295200Y-99287600D03*
%TD*%
%TO.C,D35*%
X210616800Y-95987600D03*
X210616800Y-99287600D03*
%TD*%
%TO.C,D34*%
X191566800Y-95987600D03*
X191566800Y-99287600D03*
%TD*%
%TO.C,D33*%
X172466000Y-95987600D03*
X172466000Y-99287600D03*
%TD*%
%TO.C,D32*%
X153416000Y-95987600D03*
X153416000Y-99287600D03*
%TD*%
%TO.C,D31*%
X116738400Y-95987600D03*
X116738400Y-99287600D03*
%TD*%
%TO.C,D30*%
X113893600Y-95987600D03*
X113893600Y-99287600D03*
%TD*%
%TO.C,D29*%
X96316800Y-95987600D03*
X96316800Y-99287600D03*
%TD*%
%TO.C,D28*%
X77216000Y-95987600D03*
X77216000Y-99287600D03*
%TD*%
%TO.C,D27*%
X54762400Y-95987600D03*
X54762400Y-99287600D03*
%TD*%
%TO.C,D25*%
X246634000Y-76683600D03*
X246634000Y-79983600D03*
%TD*%
%TO.C,D24*%
X243941600Y-76683600D03*
X243941600Y-79983600D03*
%TD*%
%TO.C,D23*%
X224942400Y-76683600D03*
X224942400Y-79983600D03*
%TD*%
%TO.C,D22*%
X205841600Y-76683600D03*
X205841600Y-79983600D03*
%TD*%
%TO.C,D21*%
X186842400Y-76683600D03*
X186842400Y-79983600D03*
%TD*%
%TO.C,D20*%
X167741600Y-76683600D03*
X167741600Y-79983600D03*
%TD*%
%TO.C,D19*%
X148691600Y-76683600D03*
X148691600Y-79983600D03*
%TD*%
%TO.C,D18*%
X129641600Y-76683600D03*
X129641600Y-79983600D03*
%TD*%
%TO.C,D17*%
X110591600Y-76683600D03*
X110591600Y-79983600D03*
%TD*%
%TO.C,D16*%
X91541600Y-76683600D03*
X91541600Y-79983600D03*
%TD*%
%TO.C,D15*%
X72491600Y-76683600D03*
X72491600Y-79983600D03*
%TD*%
%TO.C,D14*%
X51104800Y-76683600D03*
X51104800Y-79983600D03*
%TD*%
%TO.C,D13*%
X253492000Y-57938400D03*
X253492000Y-61238400D03*
%TD*%
%TO.C,D12*%
X231190800Y-95987600D03*
X231190800Y-99287600D03*
%TD*%
%TO.C,D11*%
X234391200Y-57938400D03*
X234391200Y-61238400D03*
%TD*%
%TO.C,D10*%
X215341200Y-57938400D03*
X215341200Y-61238400D03*
%TD*%
%TO.C,D9*%
X196342000Y-57938400D03*
X196342000Y-61238400D03*
%TD*%
%TO.C,D8*%
X177292000Y-57938400D03*
X177292000Y-61238400D03*
%TD*%
%TO.C,D7*%
X158242000Y-57938400D03*
X158242000Y-61238400D03*
%TD*%
%TO.C,D6*%
X139141200Y-57938400D03*
X139141200Y-61238400D03*
%TD*%
%TO.C,D5*%
X120091200Y-57938400D03*
X120091200Y-61238400D03*
%TD*%
%TO.C,D4*%
X101092000Y-57938400D03*
X101092000Y-61238400D03*
%TD*%
%TO.C,D3*%
X82042000Y-57938400D03*
X82042000Y-61238400D03*
%TD*%
%TO.C,D2*%
X62992000Y-57938400D03*
X62992000Y-61238400D03*
%TD*%
%TO.C,D1*%
X43891200Y-57938400D03*
X43891200Y-61238400D03*
%TD*%
%TO.C,C9*%
G36*
G01*
X130460727Y-118955922D02*
X131132478Y-119627673D01*
G75*
G02*
X131132478Y-119981227I-176777J-176777D01*
G01*
X130778925Y-120334780D01*
G75*
G02*
X130425371Y-120334780I-176777J176777D01*
G01*
X129753620Y-119663029D01*
G75*
G02*
X129753620Y-119309475I176777J176777D01*
G01*
X130107173Y-118955922D01*
G75*
G02*
X130460727Y-118955922I176777J-176777D01*
G01*
G37*
G36*
G01*
X131804229Y-117612420D02*
X132475980Y-118284171D01*
G75*
G02*
X132475980Y-118637725I-176777J-176777D01*
G01*
X132122427Y-118991278D01*
G75*
G02*
X131768873Y-118991278I-176777J176777D01*
G01*
X131097122Y-118319527D01*
G75*
G02*
X131097122Y-117965973I176777J176777D01*
G01*
X131450675Y-117612420D01*
G75*
G02*
X131804229Y-117612420I176777J-176777D01*
G01*
G37*
%TD*%
%TO.C,C8*%
G36*
G01*
X136911024Y-124009127D02*
X136239273Y-123337376D01*
G75*
G02*
X136239273Y-122983822I176777J176777D01*
G01*
X136592826Y-122630269D01*
G75*
G02*
X136946380Y-122630269I176777J-176777D01*
G01*
X137618131Y-123302020D01*
G75*
G02*
X137618131Y-123655574I-176777J-176777D01*
G01*
X137264578Y-124009127D01*
G75*
G02*
X136911024Y-124009127I-176777J176777D01*
G01*
G37*
G36*
G01*
X135567522Y-125352629D02*
X134895771Y-124680878D01*
G75*
G02*
X134895771Y-124327324I176777J176777D01*
G01*
X135249324Y-123973771D01*
G75*
G02*
X135602878Y-123973771I176777J-176777D01*
G01*
X136274629Y-124645522D01*
G75*
G02*
X136274629Y-124999076I-176777J-176777D01*
G01*
X135921076Y-125352629D01*
G75*
G02*
X135567522Y-125352629I-176777J176777D01*
G01*
G37*
%TD*%
%TO.C,C7*%
G36*
G01*
X120363000Y-119133200D02*
X119413000Y-119133200D01*
G75*
G02*
X119163000Y-118883200I0J250000D01*
G01*
X119163000Y-118383200D01*
G75*
G02*
X119413000Y-118133200I250000J0D01*
G01*
X120363000Y-118133200D01*
G75*
G02*
X120613000Y-118383200I0J-250000D01*
G01*
X120613000Y-118883200D01*
G75*
G02*
X120363000Y-119133200I-250000J0D01*
G01*
G37*
G36*
G01*
X120363000Y-121033200D02*
X119413000Y-121033200D01*
G75*
G02*
X119163000Y-120783200I0J250000D01*
G01*
X119163000Y-120283200D01*
G75*
G02*
X119413000Y-120033200I250000J0D01*
G01*
X120363000Y-120033200D01*
G75*
G02*
X120613000Y-120283200I0J-250000D01*
G01*
X120613000Y-120783200D01*
G75*
G02*
X120363000Y-121033200I-250000J0D01*
G01*
G37*
%TD*%
%TO.C,C5*%
G36*
G01*
X135872322Y-131108473D02*
X136544073Y-130436722D01*
G75*
G02*
X136897627Y-130436722I176777J-176777D01*
G01*
X137251180Y-130790275D01*
G75*
G02*
X137251180Y-131143829I-176777J-176777D01*
G01*
X136579429Y-131815580D01*
G75*
G02*
X136225875Y-131815580I-176777J176777D01*
G01*
X135872322Y-131462027D01*
G75*
G02*
X135872322Y-131108473I176777J176777D01*
G01*
G37*
G36*
G01*
X134528820Y-129764971D02*
X135200571Y-129093220D01*
G75*
G02*
X135554125Y-129093220I176777J-176777D01*
G01*
X135907678Y-129446773D01*
G75*
G02*
X135907678Y-129800327I-176777J-176777D01*
G01*
X135235927Y-130472078D01*
G75*
G02*
X134882373Y-130472078I-176777J176777D01*
G01*
X134528820Y-130118525D01*
G75*
G02*
X134528820Y-129764971I176777J176777D01*
G01*
G37*
%TD*%
%TO.C,C4*%
G36*
G01*
X112833127Y-128861922D02*
X113504878Y-129533673D01*
G75*
G02*
X113504878Y-129887227I-176777J-176777D01*
G01*
X113151325Y-130240780D01*
G75*
G02*
X112797771Y-130240780I-176777J176777D01*
G01*
X112126020Y-129569029D01*
G75*
G02*
X112126020Y-129215475I176777J176777D01*
G01*
X112479573Y-128861922D01*
G75*
G02*
X112833127Y-128861922I176777J-176777D01*
G01*
G37*
G36*
G01*
X114176629Y-127518420D02*
X114848380Y-128190171D01*
G75*
G02*
X114848380Y-128543725I-176777J-176777D01*
G01*
X114494827Y-128897278D01*
G75*
G02*
X114141273Y-128897278I-176777J176777D01*
G01*
X113469522Y-128225527D01*
G75*
G02*
X113469522Y-127871973I176777J176777D01*
G01*
X113823075Y-127518420D01*
G75*
G02*
X114176629Y-127518420I176777J-176777D01*
G01*
G37*
%TD*%
%TO.C,C3*%
G36*
G01*
X130041673Y-117314878D02*
X129369922Y-116643127D01*
G75*
G02*
X129369922Y-116289573I176777J176777D01*
G01*
X129723475Y-115936020D01*
G75*
G02*
X130077029Y-115936020I176777J-176777D01*
G01*
X130748780Y-116607771D01*
G75*
G02*
X130748780Y-116961325I-176777J-176777D01*
G01*
X130395227Y-117314878D01*
G75*
G02*
X130041673Y-117314878I-176777J176777D01*
G01*
G37*
G36*
G01*
X128698171Y-118658380D02*
X128026420Y-117986629D01*
G75*
G02*
X128026420Y-117633075I176777J176777D01*
G01*
X128379973Y-117279522D01*
G75*
G02*
X128733527Y-117279522I176777J-176777D01*
G01*
X129405278Y-117951273D01*
G75*
G02*
X129405278Y-118304827I-176777J-176777D01*
G01*
X129051725Y-118658380D01*
G75*
G02*
X128698171Y-118658380I-176777J176777D01*
G01*
G37*
%TD*%
%TO.C,C2*%
G36*
G01*
X121203776Y-137864873D02*
X121875527Y-138536624D01*
G75*
G02*
X121875527Y-138890178I-176777J-176777D01*
G01*
X121521974Y-139243731D01*
G75*
G02*
X121168420Y-139243731I-176777J176777D01*
G01*
X120496669Y-138571980D01*
G75*
G02*
X120496669Y-138218426I176777J176777D01*
G01*
X120850222Y-137864873D01*
G75*
G02*
X121203776Y-137864873I176777J-176777D01*
G01*
G37*
G36*
G01*
X122547278Y-136521371D02*
X123219029Y-137193122D01*
G75*
G02*
X123219029Y-137546676I-176777J-176777D01*
G01*
X122865476Y-137900229D01*
G75*
G02*
X122511922Y-137900229I-176777J176777D01*
G01*
X121840171Y-137228478D01*
G75*
G02*
X121840171Y-136874924I176777J176777D01*
G01*
X122193724Y-136521371D01*
G75*
G02*
X122547278Y-136521371I176777J-176777D01*
G01*
G37*
%TD*%
%TO.C,C1*%
G36*
G01*
X111004327Y-127033122D02*
X111676078Y-127704873D01*
G75*
G02*
X111676078Y-128058427I-176777J-176777D01*
G01*
X111322525Y-128411980D01*
G75*
G02*
X110968971Y-128411980I-176777J176777D01*
G01*
X110297220Y-127740229D01*
G75*
G02*
X110297220Y-127386675I176777J176777D01*
G01*
X110650773Y-127033122D01*
G75*
G02*
X111004327Y-127033122I176777J-176777D01*
G01*
G37*
G36*
G01*
X112347829Y-125689620D02*
X113019580Y-126361371D01*
G75*
G02*
X113019580Y-126714925I-176777J-176777D01*
G01*
X112666027Y-127068478D01*
G75*
G02*
X112312473Y-127068478I-176777J176777D01*
G01*
X111640722Y-126396727D01*
G75*
G02*
X111640722Y-126043173I176777J176777D01*
G01*
X111994275Y-125689620D01*
G75*
G02*
X112347829Y-125689620I176777J-176777D01*
G01*
G37*
%TD*%
M02*
