M48
; DRILL file {KiCad (5.1.9)-1} date 01/25/21 12:39:43
; FORMAT={-:-/ absolute / inch / decimal}
; #@! TF.CreationDate,2021-01-25T12:39:43+01:00
; #@! TF.GenerationSoftware,Kicad,Pcbnew,(5.1.9)-1
; #@! TF.FileFunction,NonPlated,1,2,NPTH
FMAT,2
INCH
T1C0.0689
T2C0.1200
T3C0.1570
%
G90
G05
T1
X1.154Y-2.232
X1.342Y-2.982
X1.436Y-3.732
X1.554Y-2.232
X1.624Y-4.482
X1.742Y-2.982
X1.836Y-3.732
X1.904Y-2.232
X1.998Y-5.232
X2.024Y-4.482
X2.28Y-2.982
X2.304Y-2.232
X2.398Y-5.232
X2.466Y-3.732
X2.654Y-2.232
X2.68Y-2.982
X2.842Y-4.482
X2.842Y-5.232
X2.866Y-3.732
X3.03Y-2.982
X3.054Y-2.232
X3.216Y-3.732
X3.242Y-4.482
X3.242Y-5.232
X3.404Y-2.232
X3.43Y-2.982
X3.592Y-4.482
X3.616Y-3.732
X3.78Y-2.982
X3.804Y-2.232
X3.966Y-3.732
X3.992Y-4.482
X4.154Y-2.232
X4.18Y-2.982
X4.342Y-4.482
X4.366Y-3.732
X4.53Y-2.982
X4.554Y-2.232
X4.716Y-3.732
X4.742Y-4.482
X4.904Y-2.232
X4.93Y-2.982
X5.092Y-4.482
X5.116Y-3.732
X5.28Y-2.982
X5.304Y-2.232
X5.466Y-3.732
X5.492Y-4.482
X5.654Y-2.232
X5.654Y-5.232
X5.68Y-2.982
X5.842Y-4.482
X5.866Y-3.732
X6.03Y-2.982
X6.054Y-2.232
X6.054Y-5.232
X6.216Y-3.732
X6.242Y-4.482
X6.404Y-2.232
X6.43Y-2.982
X6.592Y-4.482
X6.616Y-3.732
X6.78Y-2.982
X6.804Y-2.232
X6.966Y-3.732
X6.992Y-4.482
X7.154Y-2.232
X7.18Y-2.982
X7.342Y-4.482
X7.366Y-3.732
X7.53Y-2.982
X7.554Y-2.232
X7.716Y-3.732
X7.742Y-4.482
X7.904Y-2.232
X7.93Y-2.982
X8.092Y-4.482
X8.116Y-3.732
X8.28Y-2.982
X8.304Y-2.232
X8.466Y-3.732
X8.466Y-5.232
X8.492Y-4.482
X8.654Y-2.232
X8.68Y-2.982
X8.842Y-4.482
X8.866Y-3.732
X8.866Y-5.232
X9.03Y-2.982
X9.054Y-2.232
X9.242Y-4.482
X9.31Y-5.232
X9.404Y-2.232
X9.43Y-2.982
X9.684Y-3.732
X9.71Y-5.232
X9.804Y-2.232
X9.874Y-4.482
X9.966Y-2.982
X10.084Y-3.732
X10.154Y-2.232
X10.274Y-4.482
X10.366Y-2.982
X10.554Y-2.232
T2
X1.3553Y-4.757
X2.2927Y-4.757
X3.8855Y-5.507
X7.8225Y-5.507
X9.4153Y-3.457
X10.3528Y-3.457
T3
X1.354Y-2.232
X1.3553Y-4.157
X1.542Y-2.982
X1.636Y-3.732
X1.824Y-4.482
X2.104Y-2.232
X2.198Y-5.232
X2.2927Y-4.157
X2.48Y-2.982
X2.666Y-3.732
X2.854Y-2.232
X3.042Y-4.482
X3.042Y-5.232
X3.23Y-2.982
X3.416Y-3.732
X3.604Y-2.232
X3.792Y-4.482
X3.8855Y-4.907
X3.98Y-2.982
X4.166Y-3.732
X4.354Y-2.232
X4.542Y-4.482
X4.73Y-2.982
X4.916Y-3.732
X5.104Y-2.232
X5.292Y-4.482
X5.48Y-2.982
X5.666Y-3.732
X5.854Y-2.232
X5.854Y-5.232
X6.042Y-4.482
X6.23Y-2.982
X6.416Y-3.732
X6.604Y-2.232
X6.792Y-4.482
X6.98Y-2.982
X7.166Y-3.732
X7.354Y-2.232
X7.542Y-4.482
X7.73Y-2.982
X7.8225Y-4.907
X7.916Y-3.732
X8.104Y-2.232
X8.292Y-4.482
X8.48Y-2.982
X8.666Y-3.732
X8.666Y-5.232
X8.854Y-2.232
X9.042Y-4.482
X9.23Y-2.982
X9.4153Y-4.057
X9.51Y-5.232
X9.604Y-2.232
X9.884Y-3.732
X10.074Y-4.482
X10.166Y-2.982
X10.3528Y-4.057
X10.354Y-2.232
T0
M30
