M48
; DRILL file {KiCad (5.1.9)-1} date 01/25/21 12:39:43
; FORMAT={-:-/ absolute / inch / decimal}
; #@! TF.CreationDate,2021-01-25T12:39:43+01:00
; #@! TF.GenerationSoftware,Kicad,Pcbnew,(5.1.9)-1
; #@! TF.FileFunction,Plated,1,2,PTH
FMAT,2
INCH
T1C0.0157
T2C0.0579
%
G90
G05
T1
X2.59Y-2.412
X2.96Y-3.148
X3.17Y-3.908
X3.416Y-4.756
X3.46Y-4.756
X3.504Y-4.756
X3.67Y-4.738
X3.796Y-4.098
X4.166Y-4.254
X4.32Y-4.642
X4.366Y-4.922
X4.422Y-4.71
X4.822Y-4.678
X4.838Y-4.88
X4.924Y-5.442
X4.928Y-4.826
X5.008Y-4.584
X5.03Y-3.908
X5.134Y-5.308
X5.134Y-5.35
X5.18Y-5.266
X5.1818Y-5.3082
X5.221Y-5.2666
X5.222Y-5.222
X5.266Y-5.22
X5.382Y-5.05
X5.456Y-5.276
X5.488Y-3.91
X5.548Y-4.988
X5.556Y-4.642
X5.688Y-4.886
X6.084Y-4.1
X6.974Y-5.304
X8.58Y-4.776
X8.58Y-4.818
X9.282Y-3.312
X9.36Y-4.76
T2
X1.204Y-2.132
X1.392Y-2.882
X1.454Y-2.032
X1.486Y-3.632
X1.642Y-2.782
X1.674Y-4.382
X1.736Y-3.532
X1.924Y-4.282
X1.954Y-2.132
X2.048Y-5.132
X2.204Y-2.032
X2.298Y-5.032
X2.33Y-2.882
X2.516Y-3.632
X2.58Y-2.782
X2.704Y-2.132
X2.766Y-3.532
X2.892Y-4.382
X2.892Y-5.132
X2.954Y-2.032
X3.08Y-2.882
X3.142Y-4.282
X3.142Y-5.032
X3.266Y-3.632
X3.33Y-2.782
X3.454Y-2.132
X3.516Y-3.532
X3.642Y-4.382
X3.704Y-2.032
X3.83Y-2.882
X3.892Y-4.282
X4.016Y-3.632
X4.08Y-2.782
X4.204Y-2.132
X4.266Y-3.532
X4.392Y-4.382
X4.454Y-2.032
X4.58Y-2.882
X4.642Y-4.282
X4.766Y-3.632
X4.83Y-2.782
X4.954Y-2.132
X5.016Y-3.532
X5.142Y-4.382
X5.204Y-2.032
X5.33Y-2.882
X5.392Y-4.282
X5.516Y-3.632
X5.58Y-2.782
X5.704Y-2.132
X5.704Y-5.132
X5.766Y-3.532
X5.892Y-4.382
X5.954Y-2.032
X5.954Y-5.032
X6.08Y-2.882
X6.142Y-4.282
X6.266Y-3.632
X6.33Y-2.782
X6.454Y-2.132
X6.516Y-3.532
X6.642Y-4.382
X6.704Y-2.032
X6.83Y-2.882
X6.892Y-4.282
X7.016Y-3.632
X7.08Y-2.782
X7.204Y-2.132
X7.266Y-3.532
X7.392Y-4.382
X7.454Y-2.032
X7.58Y-2.882
X7.642Y-4.282
X7.766Y-3.632
X7.83Y-2.782
X7.954Y-2.132
X8.016Y-3.532
X8.142Y-4.382
X8.204Y-2.032
X8.33Y-2.882
X8.392Y-4.282
X8.516Y-3.632
X8.516Y-5.132
X8.58Y-2.782
X8.704Y-2.132
X8.766Y-3.532
X8.766Y-5.032
X8.892Y-4.382
X8.954Y-2.032
X9.08Y-2.882
X9.142Y-4.282
X9.33Y-2.782
X9.36Y-5.132
X9.454Y-2.132
X9.61Y-5.032
X9.704Y-2.032
X9.734Y-3.632
X9.924Y-4.382
X9.984Y-3.532
X10.016Y-2.882
X10.174Y-4.282
X10.204Y-2.132
X10.266Y-2.782
X10.454Y-2.032
T0
M30
